<svg preserveAspectRatio="none" viewBox="0 0 128 30" style="background-color:#ffffff00" xmlns="http://www.w3.org/2000/svg" width="128" height="30"><path d="M56.333 9.901c.906 0 1.627.245 1.977.391l.236.1.68-2.383-.166-.08c-.598-.284-1.713-.493-2.651-.493-4.355 0-7.398 3.338-7.398 8.116 0 4.946 2.57 7.9 6.87 7.9 1.197 0 2.36-.223 3.108-.59l.149-.073-.46-2.258-.246.09c-.743.276-1.349.393-2.023.393-2.543 0-4.06-2.04-4.06-5.462 0-2.81 1.233-5.65 3.984-5.65zM68.213 16.564a87.564 87.564 0 0 0-.609 2.335c-.01-.05-.024-.103-.034-.155a36.3 36.3 0 0 0-.542-2.21L64.58 7.656h-3.518l4.677 14.308c.062.152.062.315.062.487 0 .18-.027.309-.173.673-.27.652-.854 1.686-1.61 2.478-.777.824-1.66 1.486-2.486 1.862l-.202.093L62.57 30l.194-.075c.292-.116 1.826-.767 3.35-2.376 2.221-2.375 3.469-6.178 4.555-9.866l3.051-10.027h-3.329l-2.178 8.908zM82.642 7.403c-1.592 0-2.803.547-3.684 1.66V1.135H75.62v18.277c0 .73-.057 1.821-.103 2.695-.02.356-.035.681-.046.933l-.01.222h2.914l.157-1.659c.626.965 1.616 1.91 3.546 1.91 2.859 0 5.745-2.538 5.745-8.211 0-4.797-2.034-7.898-5.181-7.898zm1.845 8.026c0 2.11-.382 5.65-2.935 5.65-.792 0-1.868-.436-2.5-2.538-.094-.208-.094-.538-.094-.855v-4.234c0-.344 0-.698.071-1.032.216-1.214 1.264-2.518 2.488-2.518 2.678 0 2.97 3.865 2.97 5.527zM96.123 7.404c-4.655 0-6.307 4.355-6.307 8.087 0 5.915 3.161 8.022 6.12 8.022 2.892 0 6.27-2.11 6.27-8.053 0-5.94-3.14-8.056-6.083-8.056zm-.037 13.767c-2.552 0-2.933-3.58-2.933-5.71 0-1.711.279-5.684 2.857-5.684 2.546 0 2.82 3.973 2.82 5.683 0 1.717-.265 5.711-2.744 5.711zM104.195 10.09h6.37c-.184.294-.39.601-.599.915-.237.355-.479.718-.706 1.082l-5.747 9.38-.033.047v1.747h10.85v-2.434h-7.006c.18-.29.386-.597.596-.91.237-.356.48-.723.707-1.091l5.675-9.248.028-.052v-1.87h-10.135v2.433zM127.993 23.04c-.012-.375-.034-.766-.054-1.187-.045-.85-.097-1.813-.097-2.945V7.656h-3.336v10.219c0 .54-.048.976-.148 1.336a2.383 2.383 0 0 1-2.371 1.836c-1.58 0-2.22-1.138-2.22-3.927V7.656h-3.337v9.811c0 4.125 1.477 6.045 4.654 6.045 1.71 0 3.055-.807 3.811-1.61l.16 1.36H128l-.007-.223z" fill="#a6a4a5"/><path d="M38.319 19.94c0 4.475-3.629 8.1-8.105 8.1-4.477 0-8.106-3.625-8.106-8.1 0-4.474 3.629-8.1 8.106-8.1a8.102 8.102 0 0 1 8.105 8.1zm-8.113-3.268a3.271 3.271 0 0 0-3.272 3.269 3.27 3.27 0 0 0 3.272 3.267 3.27 3.27 0 1 0 0-6.536z" fill="#9dd0e0"/><path d="M45.527 5.861a5.029 5.029 0 0 1-5.031 5.027 5.027 5.027 0 0 1 0-10.052c2.778 0 5.03 2.25 5.03 5.025zm-5.038-2.026a2.027 2.027 0 0 0 0 4.054 2.028 2.028 0 1 0 0-4.054z" fill="#bcdee9"/><path d="M25.832 12.905c0 7.13-5.782 12.907-12.914 12.907C5.783 25.812 0 20.035 0 12.905 0 5.778 5.783 0 12.918 0c7.132 0 12.914 5.778 12.914 12.905zM12.904 7.7a5.207 5.207 0 1 0 0 10.415 5.207 5.207 0 1 0 0-10.414z" fill="#63bbd3"/></svg>